<svg width="400" height="400" viewBox="0 0 400 400" xmlns="http://www.w3.org/2000/svg">
  <rect width="400" height="400" fill="#ffffff"/>
  
  <!-- Hand-drawn contour lines with organic, wavy paths -->
  <g stroke="#d1d5db" stroke-width="1" fill="none" stroke-linecap="round" stroke-linejoin="round" opacity="0.6">
    <!-- Top organic contour -->
    <path d="M10,80 Q50,70 90,85 T170,75 T250,90 T330,80 T390,95"/>
    <path d="M5,100 Q45,90 85,105 T165,95 T245,110 T325,100 T395,115"/>
    
    <!-- Middle organic contours -->
    <path d="M20,140 Q60,130 100,145 T180,135 T260,150 T340,140 T380,155"/>
    <path d="M15,160 Q55,150 95,165 T175,155 T255,170 T335,160 T385,175"/>
    <path d="M25,200 Q65,190 105,205 T185,195 T265,210 T345,200 T375,215"/>
    <path d="M10,220 Q50,210 90,225 T170,215 T250,230 T330,220 T390,235"/>
    <path d="M30,260 Q70,250 110,265 T190,255 T270,270 T350,260 T370,275"/>
    
    <!-- Lower organic contours -->
    <path d="M5,300 Q45,290 85,305 T165,295 T245,310 T325,300 T395,315"/>
    <path d="M20,320 Q60,310 100,325 T180,315 T260,330 T340,320 T380,335"/>
    <path d="M15,360 Q55,350 95,365 T175,355 T255,370 T335,360 T385,375"/>
  </g>
  
  <!-- Secondary layer with lighter, shorter lines for depth -->
  <g stroke="#e5e7eb" stroke-width="0.8" fill="none" stroke-linecap="round" stroke-linejoin="round" opacity="0.4">
    <path d="M50,60 Q90,55 130,70 T210,60 T290,75 T370,65"/>
    <path d="M40,180 Q80,170 120,185 T200,175 T280,190 T360,180"/>
    <path d="M30,240 Q70,230 110,245 T190,235 T270,250 T350,240"/>
    <path d="M45,280 Q85,270 125,285 T205,275 T285,290 T365,280"/>
  </g>
  
  <!-- Tertiary layer with very subtle detail lines -->
  <g stroke="#f3f4f6" stroke-width="0.6" fill="none" stroke-linecap="round" stroke-linejoin="round" opacity="0.3">
    <path d="M70,40 Q110,35 150,50 T230,40 T310,55 T350,45"/>
    <path d="M60,340 Q100,330 140,345 T220,335 T300,350 T340,340"/>
  </g>
</svg>